<svg xmlns="http://www.w3.org/2000/svg" aria-hidden="true" style="position:absolute;width:0;height:0;overflow:hidden">
  <defs>
    <symbol id="icon-close" viewBox="0 0 32 32">
      <path d="M5.21 5.21a2.182 2.182 0 0 1 3.086 0l7.717 7.717L23.73 5.21a2.186 2.186 0 0 1 3.059.026 2.181 2.181 0 0 1 .026 3.059l-7.717 7.717 7.717 7.717a2.186 2.186 0 0 1-.026 3.059 2.181 2.181 0 0 1-3.059.026l-7.717-7.717-7.717 7.717a2.182 2.182 0 0 1-3.085-3.085l7.717-7.717-7.717-7.717a2.182 2.182 0 0 1 0-3.086z"/>
    </symbol>
    <symbol id="icon-cross" viewBox="0 0 30 32">
      <path stroke-linecap="round" stroke-linejoin="round" stroke-width="3.388" d="M1.882 29.559 28.235 3.206M28.235 29.559 1.882 3.206"/>
    </symbol>
    <symbol id="icon-menu" viewBox="0 0 32 32">
      <path d="M26.667 23.333a1.998 1.998 0 0 1 .192 3.989l-.192.009H5.334a2.001 2.001 0 0 1-1.512-3.308 2 2 0 0 1 1.32-.682l.192-.009h21.333zm0-9.333a2 2 0 0 1 0 4H5.334a2 2 0 0 1 0-4h21.333zm0-9.333a2 2 0 0 1 0 4H5.334a2 2 0 0 1 0-4h21.333z"/>
    </symbol>
    <symbol id="icon-remove" viewBox="0 0 32 32">
      <path d="M8 17.333c-.378 0-.694-.128-.95-.383s-.383-.572-.383-.95.128-.694.383-.95c.256-.256.572-.383.95-.383h16c.378 0 .695.128.95.383s.383.572.383.95-.128.694-.383.95a1.288 1.288 0 0 1-.95.383H8z"/>
    </symbol>
<symbol id="icon-left-arrow" viewBox="0 0 64 67">
<path d="M0.125 33.35C0.125 51.775 14.316 66.7 31.813 66.7C49.31 66.7 63.5 51.775 63.5 33.35C63.5 14.925 49.31 0 31.813 0C14.316 0 0.125 14.925 0.125 33.35Z" fill="url(#paint0_radial)"/>
  <path fill-rule="evenodd" clip-rule="evenodd" d="M2.542 32.383C2.542 49.764 16.056 63.897 32.663 63.897C49.29 63.897 62.804 49.764 62.804 32.383C62.804 15.003 49.29 0.87 32.663 0.87C16.056 0.87 2.542 15.003 2.542 32.383ZM60.059 32.383C60.059 48.256 47.801 61.132 32.663 61.132C17.545 61.132 5.287 48.256 5.287 32.383C5.287 16.511 17.545 3.635 32.663 3.635C47.801 3.635 60.059 16.511 60.059 32.383Z" fill="#FFF8FA"/>
  <path d="M5.287 32.383C5.287 48.256 17.545 61.132 32.663 61.132C47.801 61.132 60.059 48.256 60.059 32.383C60.059 16.511 47.801 3.635 32.663 3.635C17.545 3.635 5.287 16.511 5.287 32.383Z" fill="url(#paint1_radial)"/>
  <g opacity="0.05">
    <path d="M5.287 32.383C5.287 48.256 17.545 61.132 32.663 61.132C40.377 61.132 47.337 57.787 52.325 52.413C46.854 56.376 39.933 58.483 32.625 57.845C16.675 56.492 4.823 42.669 6.177 26.97C6.293 25.539 6.525 24.147 6.853 22.794C5.848 25.791 5.287 29.019 5.287 32.383Z" fill="black"/>
  </g>
  <g opacity="0.26">
    <path d="M9.328 17.342C14.355 11.329 21.721 7.54 29.918 7.54C45.037 7.54 57.294 20.416 57.294 36.289C57.294 41.818 55.825 46.98 53.253 51.349C57.487 46.284 60.059 39.653 60.059 32.383C60.059 16.511 47.801 3.635 32.663 3.635C22.803 3.635 14.161 9.106 9.328 17.342Z" fill="white"/>
  </g>
  <path d="M50.856 18.174C50.373 18.657 49.425 18.522 48.768 17.864C48.111 17.207 47.995 16.279 48.478 15.796C48.981 15.293 49.909 15.428 50.566 16.086C51.223 16.743 51.359 17.671 50.856 18.174Z" fill="white"/>
  <path d="M48.246 14.229C47.627 15.138 45.675 14.867 43.896 13.649C42.117 12.431 41.17 10.711 41.789 9.802C42.427 8.913 44.36 9.164 46.139 10.382C47.917 11.6 48.865 13.34 48.246 14.229Z" fill="white"/>
  <path opacity="0.05" d="M13.968 51.659C14.316 51.156 15.534 51.446 16.713 52.277C17.893 53.109 18.569 54.172 18.221 54.675C17.873 55.158 16.636 54.887 15.457 54.037C14.297 53.205 13.62 52.142 13.968 51.659Z" fill="white"/>
  <path d="M38.676 49.861C40.068 49.861 41.325 48.991 41.808 47.696C42.775 45.124 43.509 41.084 43.896 36.308C44.321 31.127 43.915 25.83 42.755 21.789C42.349 20.358 41.015 19.353 39.527 19.353C39.32 19.353 39.114 19.372 38.908 19.411C37.129 19.74 32.509 20.88 27.656 24.109C24.002 26.545 21.044 29.116 19.536 31.166C18.241 32.925 18.221 35.284 19.497 37.043C21.431 39.75 25.143 42.65 27.192 44.138C30.865 46.806 34.925 48.972 37.806 49.745C38.09 49.822 38.38 49.861 38.676 49.861Z" fill="#307C02"/>
  <path d="M20.367 35.167C19.265 33.64 19.285 31.591 20.387 30.083C21.953 27.975 24.988 25.423 28.352 23.181C32.354 20.513 36.549 19.121 39.353 18.579C40.706 18.328 42.04 19.159 42.427 20.493C43.393 23.915 44.012 29 43.548 34.761C43.2 39.015 42.504 43.229 41.499 45.975C41.015 47.251 39.623 47.966 38.309 47.599C35.583 46.864 31.619 44.815 27.907 42.089C24.795 39.827 21.875 37.275 20.367 35.167Z" fill="white"/>
  <defs>
    <radialGradient id="paint0_radial" cx="0" cy="0" r="1" gradientUnits="userSpaceOnUse" gradientTransform="translate(31.812 33.351) rotate(180) scale(31.626 31.626)">
      <stop offset="0.387"/>
      <stop offset="1" stop-opacity="0"/>
    </radialGradient>
    <radialGradient id="paint1_radial" cx="0" cy="0" r="1" gradientUnits="userSpaceOnUse" gradientTransform="translate(32.67 32.383) rotate(180) scale(32.279 32.279)">
      <stop stop-color="#94DD00"/>
      <stop offset="1" stop-color="#36A800"/>
    </radialGradient>
  </defs>
</symbol>
<symbol id="icon-right-arrow" viewBox="0 0 64 67">
  <path d="M63.7494 33.35C63.7494 51.7747 49.5587 66.7 32.062 66.7C14.5654 66.7 0.374695 51.7747 0.374695 33.35C0.374695 14.9253 14.5654 0 32.062 0C49.5587 0 63.7494 14.9253 63.7494 33.35Z" fill="url(#paint0_radial_9_102)" />
  <path fill-rule="evenodd" clip-rule="evenodd" d="M61.3327 32.3834C61.3327 49.7641 47.8187 63.8968 31.2113 63.8968C14.5847 63.8968 1.07068 49.7641 1.07068 32.3834C1.07068 15.0028 14.5847 0.870117 31.2113 0.870117C47.8187 0.870117 61.3327 15.0028 61.3327 32.3834ZM3.81603 32.3834C3.81603 48.2561 16.0733 61.1321 31.2113 61.1321C46.33 61.1321 58.5873 48.2561 58.5873 32.3834C58.5873 16.5108 46.33 3.63479 31.2113 3.63479C16.0733 3.63479 3.81603 16.5108 3.81603 32.3834Z" fill="#FFF8FA" />
  <path d="M58.5874 32.3834C58.5874 48.2561 46.3301 61.1321 31.2114 61.1321C16.0734 61.1321 3.8161 48.2561 3.8161 32.3834C3.8161 16.5108 16.0734 3.63477 31.2114 3.63477C46.3301 3.63477 58.5874 16.5108 58.5874 32.3834Z" fill="url(#paint1_radial_9_102)" />
  <g opacity="0.05">
    <path d="M58.5874 32.3833C58.5874 48.2559 46.3301 61.132 31.2114 61.132C23.4974 61.132 16.5374 57.7873 11.5494 52.4126C17.0207 56.3759 23.9421 58.4833 31.2501 57.8453C47.2001 56.492 59.0514 42.6686 57.6981 26.9699C57.5821 25.5393 57.3501 24.1473 57.0214 22.7939C58.0267 25.7906 58.5874 29.0193 58.5874 32.3833Z" fill="black" />
  </g>
  <g opacity="0.26">
    <path d="M54.5467 17.3421C49.52 11.3294 42.154 7.54009 33.9567 7.54009C18.838 7.54009 6.58069 20.4161 6.58069 36.2888C6.58069 41.8181 8.05003 46.9801 10.6214 51.3494C6.38736 46.2841 3.81604 39.6528 3.81604 32.3834C3.81604 16.5108 16.0734 3.63477 31.2114 3.63477C41.0714 3.63477 49.7134 9.1061 54.5467 17.3421Z" fill="white" />
  </g>
  <path d="M13.0186 18.1735C13.5019 18.6568 14.4492 18.5215 15.1066 17.8642C15.7639 17.2068 15.8799 16.2788 15.3966 15.7955C14.8939 15.2928 13.9659 15.4282 13.3086 16.0855C12.6512 16.7428 12.5159 17.6708 13.0186 18.1735Z" fill="white" />
  <path d="M15.6286 14.2294C16.2473 15.1381 18.1999 14.8674 19.9786 13.6494C21.7573 12.4314 22.7046 10.7107 22.0859 9.80207C21.4479 8.91274 19.5146 9.16407 17.7359 10.3821C15.9573 11.6001 15.0099 13.3401 15.6286 14.2294Z" fill="white" />
  <path opacity="0.05" d="M49.9066 51.6586C49.5586 51.156 48.3406 51.446 47.1613 52.2773C45.9819 53.1086 45.3053 54.172 45.6533 54.6746C46.0013 55.158 47.2386 54.8873 48.4179 54.0366C49.5779 53.2053 50.2546 52.142 49.9066 51.6586Z" fill="white" />
  <path d="M25.1987 49.8608C23.8067 49.8608 22.55 48.9908 22.0667 47.6955C21.1 45.1241 20.3653 41.0835 19.9787 36.3081C19.5533 31.1268 19.9593 25.8295 21.1193 21.7888C21.5253 20.3581 22.8593 19.3528 24.348 19.3528C24.5542 19.3528 24.7604 19.3721 24.9667 19.4108C26.7453 19.7395 31.366 20.8801 36.2187 24.1088C39.8727 26.5448 42.8307 29.1161 44.3387 31.1655C45.634 32.9248 45.6533 35.2835 44.3773 37.0428C42.444 39.7495 38.732 42.6495 36.6827 44.1381C33.0093 46.8061 28.9493 48.9715 26.0687 49.7448C25.7851 49.8221 25.4951 49.8608 25.1987 49.8608Z" fill="#307C02" />
  <path d="M25.1986 49.822C23.8067 49.822 22.55 48.952 22.0666 47.6567C21.1 45.0853 20.3653 41.0447 19.9593 36.2693C19.534 31.088 19.9593 25.7907 21.1 21.75C21.506 20.3193 22.84 19.2947 24.3286 19.2947C24.5478 19.2947 24.7604 19.3205 24.9666 19.372C26.726 19.7007 31.366 20.8413 36.1993 24.07C39.8533 26.506 42.8113 29.0773 44.3386 31.1267C45.634 32.886 45.6533 35.2447 44.3773 37.004C42.4246 39.6913 38.7126 42.5913 36.6633 44.0993C32.99 46.7673 28.93 48.9133 26.0686 49.706C25.7722 49.7833 25.4822 49.822 25.1986 49.822Z" fill="#307C02" />
  <path d="M25.1793 49.7834C23.7873 49.7834 22.5306 48.9135 22.0473 47.5988C21.1 45.0468 20.346 41.0061 19.9593 36.2308C19.534 31.0494 19.94 25.7521 21.1 21.7115C21.506 20.2615 22.84 19.2561 24.3287 19.2561C24.5349 19.2561 24.7411 19.2754 24.9473 19.3141C26.726 19.6621 31.3467 20.8028 36.1993 24.0315C39.8533 26.4675 42.8113 29.0388 44.3193 31.0881C45.6147 32.8281 45.634 35.2061 44.358 36.9655C42.4247 39.6528 38.7126 42.5528 36.6633 44.0415C32.99 46.7288 28.93 48.8748 26.0493 49.6674C25.7658 49.7448 25.4758 49.7834 25.1793 49.7834Z" fill="#307C02" />
  <path d="M25.1793 49.7446C23.7873 49.7446 22.5306 48.8746 22.0473 47.5599C21.0806 44.9886 20.3459 40.948 19.9399 36.192C19.5146 30.9913 19.9399 25.7133 21.0806 21.6726C21.4866 20.2226 22.8206 19.2173 24.3093 19.2173C24.5284 19.2173 24.7411 19.2366 24.9473 19.2753C26.7066 19.6233 31.3466 20.7639 36.1799 23.9926C39.8339 26.4286 42.8113 28.9999 44.3193 31.0493C45.6146 32.7893 45.6339 35.1479 44.358 36.9266C42.4053 39.6139 38.6933 42.5139 36.6439 44.0026C32.9899 46.6899 28.9106 48.836 26.0493 49.6286C25.7657 49.706 25.4757 49.7446 25.1793 49.7446Z" fill="#307C02" />
  <path d="M25.16 49.706C23.768 49.706 22.5113 48.8167 22.028 47.5214C21.0807 44.95 20.3266 40.9094 19.94 36.134C19.5146 30.9527 19.9206 25.6747 21.0806 21.634C21.4866 20.184 22.8207 19.1787 24.3093 19.1787C24.5156 19.1787 24.7282 19.198 24.9473 19.2367C26.7067 19.5654 31.3273 20.706 36.18 23.9347C39.834 26.3707 42.792 28.942 44.3 30.9914C45.5953 32.7507 45.6147 35.1094 44.3387 36.888C42.4053 39.5754 38.6933 42.4754 36.644 43.964C32.9706 46.6514 28.9106 48.7974 26.03 49.5707C25.7464 49.648 25.4564 49.6931 25.16 49.706Z" fill="#307C02" />
  <path d="M25.16 49.6481C23.768 49.6481 22.5113 48.7781 22.028 47.4828C21.0613 44.9115 20.3267 40.8708 19.9207 36.0955C19.4953 30.9142 19.9207 25.6168 21.0613 21.5761C21.4867 20.1455 22.8013 19.1401 24.29 19.1401C24.5091 19.1401 24.7218 19.1595 24.928 19.1981C26.6873 19.5268 31.3273 20.6675 36.1607 23.8961C39.8147 26.3321 42.792 28.9035 44.3 30.9528C45.5953 32.7121 45.6147 35.0708 44.3387 36.8301C42.386 39.5368 38.674 42.4368 36.644 43.9255C32.9707 46.5935 28.8913 48.7588 26.03 49.5322C25.7464 49.6095 25.4564 49.6481 25.16 49.6481Z" fill="#307C02" />
  <path d="M25.1407 49.6093C23.7487 49.6093 22.492 48.7394 22.0087 47.444C21.0613 44.8727 20.3073 40.832 19.9207 36.0567C19.4953 30.8753 19.9013 25.578 21.0613 21.5374C21.4673 20.1067 22.8013 19.082 24.29 19.082C24.4962 19.082 24.7089 19.1078 24.928 19.1593C26.6873 19.488 31.3273 20.6287 36.1607 23.8574C39.8147 26.2934 42.7727 28.8647 44.2807 30.914C45.576 32.6734 45.5953 35.032 44.3193 36.7914C42.386 39.4787 38.674 42.3787 36.6247 43.8867C32.9513 46.5547 28.8913 48.7007 26.0107 49.4933C25.7271 49.5707 25.4371 49.6093 25.1407 49.6093Z" fill="#307C02" />
  <path d="M25.1406 49.5708C23.7486 49.5708 22.492 48.7008 22.0086 47.3861C21.042 44.8341 20.3073 40.7935 19.9013 36.0181C19.476 30.8368 19.9013 25.5395 21.042 21.4988C21.4673 20.0488 22.782 19.0435 24.2706 19.0435C24.4897 19.0435 24.7024 19.0628 24.9086 19.1015C26.668 19.4495 31.308 20.5901 36.1413 23.8188C39.7953 26.2548 42.7726 28.8261 44.2806 30.8755C45.576 32.6155 45.5953 34.9935 44.3193 36.7528C42.3666 39.4401 38.6546 42.3401 36.6246 43.8288C32.9513 46.5161 28.872 48.6621 26.0106 49.4548C25.7271 49.5321 25.4371 49.5708 25.1406 49.5708Z" fill="#307C02" />
  <path d="M25.1213 49.532C23.7293 49.532 22.4727 48.662 21.9893 47.3473C21.042 44.776 20.288 40.7353 19.9013 35.9793C19.476 30.7786 19.882 25.5006 21.042 21.46C21.448 20.01 22.782 19.0046 24.2706 19.0046C24.4769 19.0046 24.6895 19.024 24.9087 19.0626C26.668 19.4106 31.308 20.5513 36.1413 23.78C39.7953 26.216 42.7533 28.7873 44.2806 30.8366C45.576 32.5766 45.576 34.9353 44.3 36.714C42.3666 39.4013 38.6547 42.3013 36.6053 43.79C32.932 46.4773 28.872 48.6233 25.9913 49.416C25.7078 49.4933 25.4178 49.532 25.1213 49.532Z" fill="#307C02" />
  <path d="M25.1213 49.4934C23.7293 49.4934 22.4726 48.6041 21.9893 47.3087C21.0226 44.7374 20.2879 40.6967 19.9013 35.9214C19.4566 30.7401 19.882 25.4621 21.0226 21.4214C21.448 19.9714 22.7626 18.9661 24.2513 18.9661C24.4704 18.9661 24.6831 18.9854 24.8893 19.0241C26.668 19.3527 31.2886 20.4934 36.1219 23.7221C39.7759 26.1581 42.7533 28.7294 44.2613 30.7787C45.5566 32.5381 45.5759 34.8967 44.2999 36.6754C42.3473 39.3627 38.6353 42.2627 36.6053 43.7514C32.9319 46.4387 28.8526 48.5847 25.9913 49.3581C25.7077 49.4354 25.4177 49.4805 25.1213 49.4934Z" fill="#307C02" />
  <path d="M25.102 49.4355C23.7293 49.4355 22.4533 48.5655 21.97 47.2702C21.0226 44.6988 20.2687 40.6581 19.882 35.8828C19.4567 30.7015 19.8627 25.4042 21.0227 21.3635C21.4287 19.9328 22.7627 18.9275 24.2513 18.9275C24.4575 18.9275 24.6702 18.9468 24.8893 18.9855C26.6487 19.3142 31.2887 20.4548 36.122 23.6835C39.776 26.1195 42.734 28.6908 44.2613 30.7402C45.5567 32.4995 45.5567 34.8582 44.2807 36.6175C42.3473 39.3242 38.6353 42.2241 36.586 43.7128C32.9127 46.3808 28.8527 48.5461 25.972 49.3195C25.6884 49.3968 25.3984 49.4355 25.102 49.4355Z" fill="#307C02" />
  <path d="M25.102 49.3967C23.71 49.3967 22.4533 48.5267 21.97 47.2314C21.0033 44.6601 20.2687 40.6194 19.882 35.8441C19.4567 30.6627 19.8627 25.3654 21.0033 21.3247C21.4287 19.8941 22.7433 18.8694 24.2513 18.8694C24.4576 18.8694 24.6638 18.8952 24.87 18.9467C26.6487 19.2754 31.2693 20.4161 36.1027 23.6447C39.7567 26.0807 42.734 28.6521 44.242 30.7014C45.5373 32.4607 45.5567 34.8194 44.2807 36.5787C42.3473 39.2661 38.616 42.1661 36.586 43.6741C32.9127 46.3421 28.8527 48.4881 25.972 49.2807C25.6884 49.3581 25.3984 49.3967 25.102 49.3967Z" fill="#307C02" />
  <path d="M25.0826 49.3581C23.71 49.3581 22.4533 48.4881 21.9506 47.1735C21.0033 44.6215 20.2493 40.5808 19.8626 35.8055C19.4373 30.6242 19.8626 25.3268 21.0033 21.2861C21.4093 19.8361 22.7433 18.8308 24.232 18.8308C24.4511 18.8308 24.6637 18.8502 24.87 18.8888C26.6293 19.2368 31.2693 20.3775 36.1026 23.6061C39.7566 26.0421 42.7146 28.6135 44.242 30.6628C45.5373 32.4028 45.5373 34.7808 44.2613 36.5401C42.328 39.2275 38.616 42.1275 36.5666 43.6161C32.8933 46.3035 28.8333 48.4495 25.972 49.2422C25.6755 49.3195 25.3791 49.3581 25.0826 49.3581Z" fill="#307C02" />
  <path d="M25.0827 49.3193C23.6907 49.3193 22.434 48.4493 21.9506 47.1347C20.984 44.5633 20.2493 40.5226 19.8627 35.7666C19.4373 30.566 19.8433 25.288 21.0033 21.2473C21.4093 19.7973 22.724 18.792 24.232 18.792C24.4382 18.792 24.6444 18.8113 24.8506 18.85C26.6293 19.198 31.25 20.3386 36.0833 23.5673C39.7373 26.0033 42.7146 28.5746 44.2227 30.624C45.518 32.364 45.5373 34.7227 44.2613 36.5013C42.328 39.1887 38.5966 42.0886 36.5666 43.5773C32.8933 46.2646 28.8333 48.4106 25.9527 49.2033C25.6691 49.2806 25.3791 49.3193 25.0827 49.3193Z" fill="#307C02" />
  <path d="M25.0633 49.2808C23.6907 49.2808 22.434 48.3914 21.9313 47.0961C20.984 44.5247 20.23 40.4841 19.8433 35.7088C19.418 30.5274 19.8433 25.2494 20.984 21.2088C21.39 19.7588 22.724 18.7534 24.2127 18.7534C24.4318 18.7534 24.6444 18.7728 24.8507 18.8114C26.61 19.1401 31.25 20.2807 36.0833 23.5094C39.7373 25.9454 42.6953 28.5167 44.2227 30.5661C45.518 32.3254 45.518 34.6841 44.242 36.4627C42.3087 39.1501 38.5967 42.0501 36.5473 43.5388C32.874 46.2261 28.814 48.3721 25.9527 49.1454C25.6562 49.2228 25.3598 49.2679 25.0633 49.2808Z" fill="#307C02" />
  <path d="M25.0633 49.2226C23.6713 49.2226 22.4147 48.3526 21.9313 47.0573C20.9647 44.4859 20.23 40.4453 19.8433 35.6699C19.418 30.4886 19.824 25.1913 20.984 21.1506C21.39 19.7199 22.724 18.7146 24.2127 18.7146C24.4189 18.7146 24.6251 18.7339 24.8313 18.7726C26.61 19.1013 31.2307 20.2419 36.0833 23.4706C39.7373 25.9066 42.6953 28.4779 44.2033 30.5273C45.4987 32.2866 45.518 34.6453 44.242 36.4046C42.3087 39.1113 38.5773 42.0113 36.5473 43.4999C32.874 46.1679 28.814 48.3333 25.9333 49.1066C25.6498 49.1839 25.3598 49.2226 25.0633 49.2226Z" fill="#307C02" />
  <path d="M25.0633 49.1841C23.6713 49.1841 22.4146 48.3141 21.9313 47.0188C20.9646 44.4474 20.2106 40.4067 19.824 35.6314C19.3986 30.4501 19.824 25.1528 20.9646 21.1121C21.3706 19.6814 22.7046 18.6567 24.1933 18.6567C24.4124 18.6567 24.6251 18.6825 24.8313 18.7341C26.5906 19.0627 31.2306 20.2034 36.064 23.4321C39.718 25.8681 42.676 28.4394 44.2033 30.4888C45.4986 32.2481 45.4986 34.6067 44.242 36.3661C42.2893 39.0534 38.5773 41.9534 36.528 43.4614C32.8546 46.1294 28.7946 48.2754 25.9333 49.0681C25.6369 49.1454 25.3469 49.1841 25.0633 49.1841Z" fill="#307C02" />
  <path d="M25.044 49.1453C23.652 49.1453 22.3953 48.2752 21.912 46.9606C20.9647 44.4086 20.2106 40.3679 19.824 35.5926C19.3986 30.4112 19.8047 25.1139 20.9647 21.0732C21.3707 19.6232 22.7046 18.6179 24.1933 18.6179C24.3995 18.6179 24.6058 18.6372 24.812 18.6759C26.5907 19.0239 31.2113 20.1646 36.064 23.3932C39.718 25.8292 42.676 28.4006 44.184 30.4499C45.4793 32.1899 45.4987 34.5679 44.2227 36.3272C42.2893 39.0146 38.5773 41.9146 36.528 43.4032C32.8547 46.0906 28.7946 48.2366 25.914 49.0292C25.6304 49.1066 25.3404 49.1453 25.044 49.1453Z" fill="#307C02" />
  <path d="M25.044 49.1067C23.652 49.1067 22.3953 48.2367 21.912 46.922C20.9453 44.3507 20.2107 40.31 19.8047 35.554C19.3793 30.3534 19.8047 25.0754 20.9453 21.0347C21.3513 19.5847 22.6853 18.5793 24.174 18.5793C24.3931 18.5793 24.6058 18.5987 24.812 18.6374C26.5713 18.9854 31.2113 20.126 36.0447 23.3547C39.6987 25.7907 42.6566 28.362 44.184 30.4114C45.4793 32.1514 45.4987 34.51 44.2227 36.2887C42.27 38.976 38.558 41.876 36.5087 43.3647C32.8353 46.052 28.7753 48.198 25.914 48.9907C25.6304 49.068 25.3404 49.1067 25.044 49.1067Z" fill="#307C02" />
  <path d="M25.0246 49.0681C23.6326 49.0681 22.376 48.1788 21.8926 46.8834C20.9453 44.3121 20.1913 40.2714 19.8046 35.4961C19.3793 30.3148 19.7853 25.0368 20.9453 20.9961C21.3513 19.5461 22.6853 18.5408 24.174 18.5408C24.3802 18.5408 24.5864 18.5601 24.7926 18.5988C26.5713 18.9274 31.192 20.0681 36.0446 23.2968C39.6986 25.7328 42.6566 28.3041 44.1646 30.3534C45.46 32.1128 45.4793 34.4714 44.2033 36.2501C42.27 38.9374 38.558 41.8374 36.5086 43.3261C32.8353 46.0134 28.7753 48.1594 25.8946 48.9328C25.6111 49.0101 25.3211 49.0552 25.0246 49.0681Z" fill="#307C02" />
  <path d="M25.0246 49.0099C23.6326 49.0099 22.376 48.1399 21.8926 46.8446C20.926 44.2733 20.1913 40.2326 19.7853 35.4573C19.36 30.2759 19.7853 24.9786 20.926 20.9379C21.332 19.5073 22.666 18.502 24.1546 18.502C24.3737 18.502 24.5864 18.5213 24.7926 18.5599C26.552 18.8886 31.192 20.0293 36.0253 23.2579C39.6793 25.6939 42.6566 28.2653 44.1646 30.3146C45.46 32.0739 45.4793 34.4326 44.2033 36.192C42.2506 38.8986 38.5386 41.7986 36.4893 43.2873C32.8353 45.9553 28.756 48.1206 25.8946 48.8939C25.6111 48.9713 25.3211 49.0099 25.0246 49.0099Z" fill="#307C02" />
  <path d="M25.0053 48.9714C23.6133 48.9714 22.3566 48.1014 21.8733 46.8061C20.926 44.2347 20.172 40.1941 19.7853 35.4188C19.36 30.2374 19.766 24.9401 20.926 20.8994C21.332 19.4687 22.666 18.4441 24.1546 18.4441C24.3609 18.4441 24.5735 18.4699 24.7927 18.5214C26.552 18.8501 31.1726 19.9907 36.0253 23.2194C39.6793 25.6554 42.6373 28.2267 44.1453 30.2761C45.4406 32.0354 45.46 34.3941 44.184 36.1534C42.2506 38.8408 38.5387 41.7408 36.4893 43.2488C32.816 45.9168 28.756 48.0628 25.8753 48.8554C25.5918 48.9328 25.3018 48.9714 25.0053 48.9714Z" fill="#307C02" />
  <path d="M25.0053 48.9328C23.6133 48.9328 22.3566 48.0628 21.8733 46.7482C20.9066 44.1962 20.172 40.1555 19.766 35.3802C19.3406 30.1988 19.7659 24.9015 20.9066 20.8608C21.3319 19.4108 22.6466 18.4055 24.1353 18.4055C24.3544 18.4055 24.5671 18.4248 24.7733 18.4635C26.5326 18.8115 31.1726 19.9522 36.006 23.1808C39.66 25.6168 42.6373 28.1882 44.1453 30.2375C45.4406 31.9775 45.4599 34.3555 44.1839 36.1148C42.2313 38.8022 38.5193 41.7022 36.4893 43.1908C32.816 45.8782 28.7366 48.0242 25.8753 48.8168C25.5917 48.8942 25.3017 48.9328 25.0053 48.9328Z" fill="#307C02" />
  <path d="M24.986 48.894C23.594 48.894 22.3373 48.024 21.854 46.7094C20.9066 44.138 20.1526 40.0974 19.766 35.3414C19.3406 30.1407 19.7466 24.8627 20.9066 20.822C21.3126 19.372 22.6466 18.3667 24.1353 18.3667C24.3415 18.3667 24.5542 18.386 24.7733 18.4247C26.5326 18.7727 31.1726 19.9134 36.006 23.142C39.66 25.578 42.618 28.1494 44.126 30.1987C45.4213 31.9387 45.4406 34.2974 44.1646 36.076C42.2313 38.7634 38.5193 41.6634 36.47 43.152C32.7966 45.8394 28.7366 47.9854 25.856 48.778C25.5724 48.8554 25.2824 48.894 24.986 48.894Z" fill="#307C02" />
  <path d="M24.986 48.8555C23.594 48.8555 22.3373 47.9661 21.854 46.6708C20.8873 44.0995 20.1526 40.0588 19.7466 35.2834C19.3213 30.1021 19.7466 24.8241 20.8873 20.7834C21.3126 19.3334 22.6273 18.3281 24.116 18.3281C24.3351 18.3281 24.5478 18.3474 24.754 18.3861C26.5133 18.7148 31.1533 19.8555 35.9866 23.0841C39.6406 25.5201 42.618 28.0915 44.126 30.1408C45.4213 31.9001 45.4407 34.2588 44.1647 36.0375C42.212 38.7248 38.5 41.6248 36.47 43.1134C32.7966 45.8008 28.7173 47.9468 25.856 48.7201C25.5724 48.7974 25.2824 48.8426 24.986 48.8555Z" fill="#307C02" />
  <path d="M24.9666 48.7973C23.594 48.7973 22.318 47.9273 21.8347 46.632C20.8873 44.0607 20.1333 40.02 19.7466 35.2447C19.3213 30.0633 19.7273 24.766 20.8873 20.7253C21.2933 19.2947 22.6273 18.2893 24.116 18.2893C24.3222 18.2893 24.5349 18.3086 24.754 18.3473C26.5133 18.676 31.1533 19.8167 35.9867 23.0453C39.6406 25.4813 42.5987 28.0527 44.126 30.102C45.4213 31.8613 45.4213 34.22 44.1453 35.9793C42.212 38.686 38.5 41.586 36.4507 43.0747C32.7773 45.7427 28.7173 47.908 25.8366 48.6813C25.5531 48.7587 25.2631 48.7973 24.9666 48.7973Z" fill="#307C02" />
  <path d="M24.9666 48.7588C23.5746 48.7588 22.318 47.8888 21.8346 46.5934C20.868 44.0221 20.1333 39.9814 19.7466 35.2061C19.3213 30.0248 19.7273 24.7274 20.868 20.6868C21.2933 19.2561 22.608 18.2314 24.116 18.2314C24.3222 18.2314 24.5284 18.2572 24.7346 18.3088C26.5133 18.6375 31.134 19.7781 35.9673 23.0068C39.6213 25.4428 42.5986 28.0141 44.1066 30.0634C45.402 31.8228 45.4213 34.1814 44.1453 35.9408C42.1926 38.6281 38.4806 41.5281 36.4506 43.0361C32.7773 45.7041 28.698 47.8501 25.8366 48.6428C25.5531 48.7201 25.2631 48.7588 24.9666 48.7588Z" fill="#307C02" />
  <path d="M24.9473 48.72C23.5746 48.72 22.2986 47.85 21.8153 46.5353C20.868 43.9833 20.114 39.9426 19.7273 35.1673C19.302 29.986 19.7273 24.6886 20.868 20.648C21.274 19.198 22.608 18.1926 24.0966 18.1926C24.3028 18.1926 24.5155 18.212 24.7346 18.2506C26.494 18.5986 31.134 19.7393 35.9673 22.968C39.6213 25.404 42.5793 27.9753 44.1066 30.0246C45.402 31.7646 45.402 34.1426 44.126 35.902C42.1926 38.5893 38.4806 41.4893 36.4313 42.978C32.758 45.6653 28.698 47.8113 25.8173 48.604C25.5337 48.6813 25.2437 48.72 24.9473 48.72Z" fill="#307C02" />
  <path d="M24.9473 48.6814C23.5553 48.6814 22.2986 47.8114 21.8153 46.4967C20.8486 43.9254 20.114 39.8847 19.7273 35.1287C19.302 29.9281 19.708 24.65 20.868 20.6094C21.274 19.1594 22.5886 18.1541 24.0966 18.1541C24.3029 18.1541 24.5091 18.1734 24.7153 18.2121C26.494 18.5601 31.1146 19.7007 35.948 22.9294C39.602 25.3654 42.5793 27.9367 44.0873 29.986C45.3826 31.726 45.402 34.0847 44.126 35.8634C42.1926 38.5507 38.4613 41.4507 36.4313 42.9394C32.758 45.6267 28.698 47.7727 25.8173 48.5654C25.5337 48.6427 25.2437 48.6814 24.9473 48.6814Z" fill="#307C02" />
  <path d="M24.928 48.6428C23.5553 48.6428 22.2987 47.7535 21.796 46.4581C20.8487 43.8868 20.0946 39.8461 19.708 35.0708C19.2826 29.8895 19.708 24.6115 20.8486 20.5708C21.2546 19.1208 22.5886 18.1155 24.0773 18.1155C24.2964 18.1155 24.5091 18.1348 24.7153 18.1735C26.4746 18.5021 31.1146 19.6428 35.948 22.8715C39.602 25.3075 42.56 27.8788 44.0873 29.9281C45.3826 31.6875 45.3826 34.0461 44.1066 35.8248C42.1733 38.5121 38.4613 41.4121 36.412 42.9008C32.7386 45.5881 28.6786 47.7341 25.8173 48.5075C25.5209 48.5848 25.2244 48.6299 24.928 48.6428Z" fill="#307C02" />
  <path d="M24.928 48.5847C23.536 48.5847 22.2793 47.7147 21.796 46.4193C20.8293 43.848 20.0947 39.8073 19.708 35.032C19.2827 29.8507 19.6887 24.5533 20.8487 20.5127C21.2547 19.082 22.5693 18.0767 24.0773 18.0767C24.2835 18.0767 24.4898 18.096 24.696 18.1347C26.4747 18.4633 31.0953 19.604 35.948 22.8327C39.602 25.2687 42.56 27.84 44.068 29.8893C45.3633 31.6487 45.3826 34.0073 44.1066 35.7667C42.1733 38.4733 38.442 41.3733 36.412 42.862C32.7387 45.53 28.6787 47.6953 25.798 48.4687C25.5144 48.546 25.2244 48.5847 24.928 48.5847Z" fill="#307C02" />
  <path d="M24.9086 48.5461C23.536 48.5461 22.2793 47.6761 21.796 46.3808C20.8293 43.8095 20.0753 39.7688 19.6886 34.9935C19.2633 29.8121 19.6886 24.5148 20.8293 20.4741C21.2353 19.0435 22.5693 18.0188 24.058 18.0188C24.2771 18.0188 24.4897 18.0446 24.696 18.0961C26.4553 18.4248 31.0953 19.5655 35.9286 22.7941C39.5826 25.2301 42.5406 27.8015 44.068 29.8508C45.3633 31.6101 45.3633 33.9688 44.0873 35.7281C42.1539 38.4155 38.442 41.3155 36.3926 42.8235C32.7193 45.4915 28.6593 47.6375 25.798 48.4301C25.5015 48.5075 25.2051 48.5461 24.9086 48.5461Z" fill="#307C02" />
  <path d="M24.9086 48.5073C23.5166 48.5073 22.26 47.6373 21.7766 46.3226C20.81 43.7706 20.0753 39.73 19.6886 34.9547C19.2633 29.7733 19.6693 24.476 20.8293 20.4353C21.2353 18.9853 22.5693 17.98 24.058 17.98C24.2642 17.98 24.4704 17.9993 24.6766 18.038C26.4553 18.386 31.076 19.5267 35.9286 22.7553C39.5826 25.1913 42.5406 27.7627 44.0486 29.812C45.344 31.552 45.3633 33.93 44.0873 35.6893C42.154 38.3766 38.4226 41.2767 36.3926 42.7653C32.7193 45.4527 28.6593 47.5987 25.7786 48.3913C25.4951 48.4687 25.2051 48.5073 24.9086 48.5073Z" fill="#307C02" />
  <path d="M24.9086 48.4687C23.5166 48.4687 22.26 47.5987 21.7766 46.2841C20.81 43.7127 20.0753 39.6721 19.6693 34.9161C19.244 29.7154 19.6693 24.4374 20.81 20.3967C21.216 18.9467 22.55 17.9414 24.0386 17.9414C24.2578 17.9414 24.4704 17.9607 24.6766 17.9994C26.436 18.3474 31.076 19.4881 35.9093 22.7167C39.5633 25.1527 42.5213 27.7241 44.0486 29.7734C45.344 31.5134 45.344 33.8721 44.0873 35.6507C42.1346 38.3381 38.4226 41.2381 36.3733 42.7267C32.7 45.4141 28.64 47.5601 25.7786 48.3527C25.4822 48.4301 25.1922 48.4687 24.9086 48.4687Z" fill="#307C02" />
  <path d="M24.8893 48.4299C23.4973 48.4299 22.2406 47.5406 21.7573 46.2453C20.81 43.6739 20.056 39.6333 19.6693 34.8579C19.244 29.6766 19.65 24.3986 20.81 20.3579C21.216 18.9079 22.55 17.9026 24.0387 17.9026C24.2449 17.9026 24.4511 17.9219 24.6573 17.9606C26.436 18.2893 31.0567 19.4299 35.9093 22.6586C39.5633 25.0946 42.5213 27.6659 44.0293 29.7153C45.3247 31.4746 45.344 33.8333 44.068 35.6119C42.1346 38.2993 38.4226 41.1993 36.3733 42.6879C32.7 45.3753 28.64 47.5213 25.7593 48.2946C25.4758 48.3719 25.1858 48.417 24.8893 48.4299Z" fill="#307C02" />
  <path d="M24.8893 48.372C23.4973 48.372 22.2407 47.502 21.7573 46.2067C20.7907 43.6353 20.056 39.5947 19.65 34.8193C19.2247 29.638 19.65 24.3407 20.7907 20.3C21.1967 18.8693 22.5307 17.864 24.0193 17.864C24.2385 17.864 24.4511 17.8834 24.6573 17.922C26.4167 18.2507 31.0567 19.3913 35.89 22.62C39.544 25.056 42.502 27.6273 44.0293 29.6767C45.3247 31.436 45.344 33.7947 44.068 35.554C42.1153 38.2607 38.4033 41.1607 36.354 42.6493C32.6807 45.3173 28.6207 47.4827 25.7593 48.256C25.4758 48.3333 25.1858 48.372 24.8893 48.372Z" fill="#307C02" />
  <path d="M24.8893 48.372C23.4973 48.372 22.2407 47.502 21.7573 46.2067C20.7907 43.6353 20.056 39.5947 19.65 34.8193C19.2247 29.638 19.65 24.3407 20.7907 20.3C21.1967 18.8693 22.5307 17.864 24.0193 17.864C24.2385 17.864 24.4511 17.8834 24.6573 17.922C26.4167 18.2507 31.0567 19.3913 35.89 22.62C39.544 25.056 42.502 27.6273 44.0293 29.6767C45.3247 31.436 45.344 33.7947 44.068 35.554C42.1153 38.2607 38.4033 41.1607 36.354 42.6493C32.6807 45.3173 28.6207 47.4827 25.7593 48.256C25.4758 48.3333 25.1858 48.372 24.8893 48.372Z" fill="#307C02" />
  <path d="M43.5073 35.1674C44.6093 33.6401 44.59 31.5907 43.488 30.0827C41.922 27.9754 38.8867 25.4234 35.5227 23.1807C31.5207 20.5127 27.3253 19.1207 24.522 18.5794C23.1687 18.328 21.8346 19.1594 21.448 20.4934C20.4813 23.9154 19.8626 29.0001 20.3266 34.7614C20.6746 39.0147 21.3707 43.2294 22.376 45.9747C22.8593 47.2507 24.2513 47.9661 25.566 47.5987C28.292 46.8641 32.2553 44.8147 35.9673 42.0887C39.08 39.8267 41.9993 37.2747 43.5073 35.1674Z" fill="white" />
  <defs>
    <radialGradient id="paint0_radial_9_102" cx="0" cy="0" r="1" gradientUnits="userSpaceOnUse" gradientTransform="translate(32.0628 33.351) scale(31.6259 31.6259)">
      <stop offset="0.387" />
      <stop offset="1" stop-opacity="0" />
    </radialGradient>
    <radialGradient id="paint1_radial_9_102" cx="0" cy="0" r="1" gradientUnits="userSpaceOnUse" gradientTransform="translate(31.2045 32.3834) scale(32.2785 32.2786)">
      <stop stop-color="#94DD00" />
      <stop offset="1" stop-color="#36A800" />
    </radialGradient>
  </defs>
</symbol>
</defs>
</svg>
